<svg xmlns="http://www.w3.org/2000/svg" width="1200" height="630" viewBox="0 0 1200 630" role="img" aria-labelledby="title desc">
  <title id="title">VyuGo Holidays social preview</title>
  <desc id="desc">Teal gradient background with the VyuGo Holidays wordmark and tagline</desc>
  <defs>
    <linearGradient id="bg" x1="0" y1="0" x2="1" y2="1">
      <stop offset="0%" stop-color="#0f766e" />
      <stop offset="100%" stop-color="#0284c7" />
    </linearGradient>
  </defs>
  <rect width="1200" height="630" fill="url(#bg)" rx="32" />
  <g fill="#ffffff">
    <text x="96" y="228" font-family="'Poppins', 'Inter', sans-serif" font-size="92" font-weight="600">VyuGo Holidays</text>
    <text x="96" y="324" font-family="'Inter', sans-serif" font-size="44" opacity="0.85">Flights · Hotels · Buses · Curated Escapes</text>
  </g>
  <g transform="translate(900 120)">
    <circle cx="96" cy="96" r="96" fill="rgba(255,255,255,0.15)" />
    <path
      d="M96 40c26 0 48 22 48 48s-22 48-48 48-48-22-48-48 22-48 48-48zm0 18c-16.6 0-30 13.4-30 30s13.4 30 30 30 30-13.4 30-30-13.4-30-30-30zm0 22.5c4.1 0 7.5 3.4 7.5 7.5S100.1 95 96 95s-7.5-3.4-7.5-7.5S91.9 80.5 96 80.5zm-39 70.5c10-18 30-30 52-30s42 12 52 30l-104 0z"
      fill="#ffffff"
      opacity="0.9"
    />
  </g>
</svg>
