<svg width="160" height="60" viewBox="0 0 160 60" fill="none" xmlns="http://www.w3.org/2000/svg">
  <rect width="160" height="60" rx="18" fill="#0B0B0B"/>
  <g transform="translate(16,7)">
    <path d="M28 3c0-1.1046.8954-2 2-2h8c1.1046 0 2 .8954 2 2v5.5h3c1.6569 0 3 1.3431 3 3V36c0 1.6569-1.3431 3-3 3H20c-1.6569 0-3-1.3431-3-3V11.5c0-1.6569 1.3431-3 3-3h3V3c0-1.1046.8954-2 2-2h3z" fill="#FF5A0A"/>
    <path d="M41 20c.5523 0 1 .4477 1 1v5.882c0 1.0738-.3793 2.1145-1.0711 2.9289l-3.8578 4.5c-.5574.6507-1.5403.7279-2.191.1705-.6507-.5574-.7279-1.5403-.1705-2.191L38.866 27.79c.1987-.2319.3076-.5279.3076-.8303V21c0-.5523.4477-1 1-1z" fill="#0B0B0B"/>
    <path d="M34.5 9a1.5 1.5 0 0 1 3 0v2h-3V9z" fill="#0B0B0B"/>
    <circle cx="28.5" cy="22" r="1.75" fill="#0B0B0B"/>
    <circle cx="45.5" cy="22" r="1.75" fill="#0B0B0B"/>
  </g>
  <text x="64" y="33" font-family="'Poppins', 'Segoe UI', sans-serif" font-size="24" font-weight="700" fill="#FF5A0A">VyuGo</text>
  <text x="66" y="47" font-family="'Inter', 'Segoe UI', sans-serif" font-size="14" font-weight="500" fill="#FFE7D6">Holidays</text>
</svg>
